<svg width="380" height="380" viewBox="0 0 380 380" fill="none" xmlns="http://www.w3.org/2000/svg">
<rect x="5" y="5" width="370" height="370" rx="185" fill="#1890FF" stroke="#1890FF" stroke-width="10"/>
<path d="M160 176.772L170.369 197.5H149.631L160 176.772ZM287.5 122.5V272.5C287.501 273.779 287.175 275.037 286.552 276.155C285.93 277.272 285.032 278.212 283.944 278.884C282.856 279.557 281.614 279.94 280.337 279.998C279.059 280.055 277.788 279.785 276.644 279.213L250 265.881L223.356 279.213C222.314 279.734 221.165 280.005 220 280.005C218.835 280.005 217.686 279.734 216.644 279.213L190 265.881L163.356 279.213C162.314 279.734 161.165 280.005 160 280.005C158.835 280.005 157.686 279.734 156.644 279.213L130 265.881L103.356 279.213C102.212 279.785 100.941 280.055 99.6633 279.998C98.3856 279.94 97.1437 279.557 96.0558 278.884C94.9678 278.212 94.07 277.272 93.4477 276.155C92.8253 275.037 92.4991 273.779 92.5 272.5V122.5C92.5 118.522 94.0804 114.706 96.8934 111.893C99.7064 109.08 103.522 107.5 107.5 107.5H272.5C276.478 107.5 280.294 109.08 283.107 111.893C285.92 114.706 287.5 118.522 287.5 122.5ZM196.713 216.644L166.713 156.644C166.09 155.396 165.133 154.346 163.947 153.612C162.761 152.878 161.394 152.489 160 152.489C158.606 152.489 157.239 152.878 156.053 153.612C154.867 154.346 153.91 155.396 153.287 156.644L123.288 216.644C122.847 217.525 122.584 218.485 122.514 219.468C122.444 220.451 122.569 221.438 122.88 222.373C123.192 223.308 123.685 224.173 124.33 224.917C124.976 225.662 125.762 226.272 126.644 226.713C127.525 227.153 128.485 227.416 129.468 227.486C130.451 227.556 131.438 227.431 132.373 227.12C133.308 226.808 134.173 226.315 134.917 225.67C135.662 225.024 136.272 224.238 136.713 223.356L142.131 212.5H177.869L183.287 223.356C183.728 224.238 184.338 225.024 185.083 225.67C185.827 226.315 186.692 226.808 187.627 227.12C188.562 227.431 189.549 227.556 190.532 227.486C191.515 227.416 192.475 227.153 193.356 226.713C194.238 226.272 195.024 225.662 195.67 224.917C196.315 224.173 196.808 223.308 197.12 222.373C197.431 221.438 197.556 220.451 197.486 219.468C197.416 218.485 197.153 217.525 196.713 216.644ZM265 190C265 188.011 264.21 186.103 262.803 184.697C261.397 183.29 259.489 182.5 257.5 182.5H242.5V167.5C242.5 165.511 241.71 163.603 240.303 162.197C238.897 160.79 236.989 160 235 160C233.011 160 231.103 160.79 229.697 162.197C228.29 163.603 227.5 165.511 227.5 167.5V182.5H212.5C210.511 182.5 208.603 183.29 207.197 184.697C205.79 186.103 205 188.011 205 190C205 191.989 205.79 193.897 207.197 195.303C208.603 196.71 210.511 197.5 212.5 197.5H227.5V212.5C227.5 214.489 228.29 216.397 229.697 217.803C231.103 219.21 233.011 220 235 220C236.989 220 238.897 219.21 240.303 217.803C241.71 216.397 242.5 214.489 242.5 212.5V197.5H257.5C259.489 197.5 261.397 196.71 262.803 195.303C264.21 193.897 265 191.989 265 190Z" fill="white"/>
</svg>
